# xmcd
#
# Track frame offsets: 
#        182
#        15797
#        27050
#        46420
#        64787
#        76547
#        91580
#        112820
#        121995
#        132342
#        146175
#        159397
#        168402
#        181812
#
# Disc length: 2752 seconds
#
# Revision: 13
# Processed by: cddbd v1.5.2PL0 Copyright (c) Steve Scherf et al.
# Submitted via: ExactAudioCopyFreeDBPlugin 1.0
#
DISCID=9c0abe0e
DTITLE=Steve Earle and The Del McCoury Band - The Mountain
DYEAR=1999
DGENRE=Bluegrass
TTITLE0=Texas Eagle
TTITLE1=Yours Forever Blue
TTITLE2=Carrie Brown
TTITLE3=I'm Still In Love With You
TTITLE4=The Graveyard Shift
TTITLE5=Harlan Man
TTITLE6=The Mountain
TTITLE7=Outlaw's Honeymoon
TTITLE8=Connemara Breakdown
TTITLE9=Leroy's Dustbowl Blues
TTITLE10=Dixieland
TTITLE11=Paddy on the Beat
TTITLE12=Long, Lonesome Highway Blues
TTITLE13=Pilgrim
EXTD=YEAR: 1999
EXTT0=
EXTT1=
EXTT2=
EXTT3=
EXTT4=
EXTT5=
EXTT6=
EXTT7=
EXTT8=
EXTT9=
EXTT10=
EXTT11=
EXTT12=
EXTT13=
PLAYORDER=
